<svg xmlns="http://www.w3.org/2000/svg" width="1123" height="130" viewBox="0 0 1123 130">
  <defs>
    <style>
      .cls-1 {
        fill-rule: evenodd;
        fill: white;
      }
    </style>
  </defs>
  <path class="cls-1" d="M493.865,30.1a12.332,12.332,0,0,1,8.351-2.882,22.353,22.353,0,0,1,10.021,2.757,62.413,62.413,0,0,1,12.027,8.436l14.031-24.14A61.915,61.915,0,0,0,520.549,3.658a54.4,54.4,0,0,0-19.583-3.6q-19.291,0-31.526,11.528T457.2,41.247a26.806,26.806,0,0,0,5.345,16.874q5.343,6.934,19.792,14.452,0.836,0.418,2.255,1.17,14.863,7.768,14.864,14.452a9.748,9.748,0,0,1-3.674,7.936q-3.675,3.007-9.854,3.008a29.989,29.989,0,0,1-14.406-3.759q-6.971-3.762-14.651-12.03L439.919,107.82a58.934,58.934,0,0,0,19.291,15.5,51.65,51.65,0,0,0,22.968,5.221q23.38,0,37-11.737t13.612-31.364q0-11.108-5.011-18.5T509.9,52.441q-2.424-1.42-6.849-3.676-12.525-6.432-12.526-11.611A8.977,8.977,0,0,1,493.865,30.1ZM390.121,3.156L343.6,54.281l8.268-51.122H319.135L299.844,125.448h32.488l8.518-53.879,34.24,53.879h38.666l-41.59-61.9L432.377,3.156H390.121Zm-115.929,0-9.437,60.06q-0.75,5.763-1.126,9.815t-0.377,7.391v3.091a102.246,102.246,0,0,0-5.928-17.375q-0.753-1.837-1.087-2.59l-25.8-60.391H193.1L176.8,106.524,154.843,3.156H113.922L52.708,125.448H88.287l11.691-23.056h42.758l4.927,23.056h58.8l9.27-61.9q0.753-6.181,1.045-9.9t0.292-7.058V43.168q1.085,4.429,2.631,8.855t4.551,11.193l27.391,62.229h35.91L306.847,3.156H274.192Zm-161.939,72L125.2,47.178q0.833-1.837,2.3-5.639t3.215-8.813q0.082,2.925.5,6.265t1.252,7.6l5.593,28.567h-25.8Zm-25.9-43.605,4.676-28.4H4.677L0,31.557H27.392L12.527,125.45h32.82v0L60.212,31.555H86.351Zm947.359,25.98q0-25.392-17-41.265T972.158,0.4a75.484,75.484,0,0,0-30.524,6.136A64.771,64.771,0,0,0,917.791,24.2,67.2,67.2,0,0,0,905.223,45.8a76.134,76.134,0,0,0-4.217,25.6,59.208,59.208,0,0,0,4.927,23.973,53.078,53.078,0,0,0,13.7,18.961,56.355,56.355,0,0,0,19.082,10.776,79.721,79.721,0,0,0,54.245-2.505,66.728,66.728,0,0,0,23.884-17.88,68.076,68.076,0,0,0,12.56-21.585A75.174,75.174,0,0,0,1033.71,57.535ZM989.445,87.648Q979.173,98.8,964.479,98.8q-13.446,0-21.5-8.436t-8.058-22.553q0-15.954,10.1-26.73A32.957,32.957,0,0,1,970.07,30.308q12.943,0,21.295,8.474t8.351,21.675Q999.716,76.5,989.445,87.648ZM870.094,3.155L850.721,125.447h33.322L903.417,3.155H870.094Zm224.5,49.286c-1.6-.946-3.89-2.172-6.84-3.676q-12.525-6.432-12.53-11.611a8.966,8.966,0,0,1,3.35-7.059,12.314,12.314,0,0,1,8.34-2.882,22.372,22.372,0,0,1,10.03,2.757,62.373,62.373,0,0,1,12.02,8.436l14.03-24.14a61.941,61.941,0,0,0-17.74-10.609,54.424,54.424,0,0,0-19.58-3.6q-19.305,0-31.53,11.528t-12.23,29.654a26.826,26.826,0,0,0,5.34,16.874q5.34,6.932,19.79,14.451c0.55,0.28,1.31.668,2.25,1.17q14.88,7.768,14.87,14.451a9.772,9.772,0,0,1-3.68,7.936q-3.66,3.007-9.85,3.008a29.965,29.965,0,0,1-14.4-3.759q-6.99-3.759-14.66-12.028l-16.96,24.473a59.144,59.144,0,0,0,19.29,15.5,51.7,51.7,0,0,0,22.97,5.221q23.385,0,37-11.737t13.61-31.364q0-11.108-5.01-18.5T1094.59,52.441ZM543.925,3.154l-4.676,28.4h27.392L551.775,125.45H584.6v0L599.46,31.555H625.6l4.677-28.4H543.925Zm166.385,0L703.3,47.678l-0.167,1.17q-7.933,50.288-26.806,50.287-7.937,0-12.36-4.386t-4.427-12.237a67.179,67.179,0,0,1,.419-6.975q0.416-3.966,1.586-10.987l9.771-61.4h-32.82L630.14,55.28q-2,12.864-3.007,21.551a127.336,127.336,0,0,0-1,13.866q0,17.376,13.194,27.857T674.4,129.042q16.953,0,29.438-6.264a45.1,45.1,0,0,0,19.333-18.211q5.428-9.354,9.019-31.909V72.572L743.13,3.156H710.31ZM845.492,29.009A47.026,47.026,0,0,0,824.734,8.92q-6.264-3.173-16.321-4.469T774.8,3.152H753.749l-19.123,122.3h28.229q29.559,0,42.174-2.715a60.152,60.152,0,0,0,21.795-9.064,58.369,58.369,0,0,0,19.417-22.387q6.391-13.2,6.391-30.823Q852.632,42.25,845.492,29.009ZM809.624,88.693q-10.185,9.857-29.819,9.858-1.421,0-3.048-.042t-5.053-.293l10.442-68.079h6.18q16.617,0,24.051,7.059t7.433,22.6Q819.81,78.836,809.624,88.693Z"/>
</svg>
